# xmcd
#
# Track frame offsets:
#	150
#	14572
#	30742
#	45931
#	62815
#	75397
#	92773
#	108622
#	125527
#	143874
#	158296
#	174466
#	189655
#	206539
#	219121
#	236497
#	252346
#	269251
#
# Disc length: 3834 seconds
#
# Revision: 1
# Processed by: cddbd v1.5.2PL0 Copyright (c) Steve Scherf et al.
# Submitted via: audiograbber 1.83.01
#
DISCID=ed0ef812
DTITLE=Various Artist - PHMC1113
DYEAR=2013
DGENRE=Country Karaoke
TTITLE0=Kellie Pickler - Little Bit Gypsy
TTITLE1=Charlie Warsham - Could It Be
TTITLE2=Josh Thompson - Cold Beer With Your Name On It
TTITLE3=George Strait - I Believe
TTITLE4=Chris Jansen - Cut Me Some Slack
TTITLE5=Ryan Kinder - Tonight
TTITLE6=George Strait - That's What Breaking Hearts Do
TTITLE7=Rick Patin - Americana Gold
TTITLE8=Jiggley Jones - Baby Blue
TTITLE9=Kellie Pickler - Little Bit Gypsy (Vocals)
TTITLE10=Charlie Warsham - Could It Be (Vocals)
TTITLE11=Josh Thompson - Cold Beer With Your Name On It (Vocals)
TTITLE12=George Strait - I Believe (Vocals)
TTITLE13=Chris Jansen - Cut Me Some Slack (Vocals)
TTITLE14=Ryan Kinder - Tonight (Vocals)
TTITLE15=George Strait - That's What Breaking Hearts Do (Vocals)
TTITLE16=Rick Patin - Americana Gold (Vocals)
TTITLE17=Jiggley Jones - Baby Blue (Vocals)
EXTD=
EXTT0=
EXTT1=
EXTT2=
EXTT3=
EXTT4=
EXTT5=
EXTT6=
EXTT7=
EXTT8=
EXTT9=
EXTT10=
EXTT11=
EXTT12=
EXTT13=
EXTT14=
EXTT15=
EXTT16=
EXTT17=
PLAYORDER=
